<svg xmlns="http://www.w3.org/2000/svg" viewBox="0 0 554.29 147.67">
    <g id="Layer_2" data-name="Layer 2">
        <g id="Layer_1-2" data-name="Layer 1">
            <path d="M508.33,121H79.64c-25.28,0-46-21.2-46-47.11h0c0-25.91,20.68-47.11,46-47.11H508.33c25.28,0,46,21.2,46,47.11h0C554.29,99.79,533.61,121,508.33,121Z" fill="#313131"/>
            <polygon points="223.34 97.45 206.77 88.82 190.27 97.58 193.36 79.16 179.94 66.17 198.41 63.41 206.61 46.63 214.94 63.35 233.44 65.97 220.11 79.05 223.34 97.45" fill="#fcb41a"/>
            <polygon points="294.23 97.45 277.66 88.82 261.16 97.58 264.25 79.16 250.83 66.17 269.3 63.41 277.5 46.63 285.83 63.35 304.32 65.97 291 79.05 294.23 97.45" fill="#fcb41a"/>
            <polygon points="365.12 97.45 348.55 88.82 332.05 97.58 335.14 79.16 321.72 66.17 340.19 63.41 348.39 46.63 356.72 63.35 375.22 65.97 361.89 79.05 365.12 97.45" fill="#fcb41a"/>
            <polygon points="436.01 97.45 419.44 88.82 402.94 97.58 406.03 79.16 392.61 66.17 411.08 63.41 419.28 46.63 427.61 63.35 446.11 65.97 432.78 79.05 436.01 97.45" fill="#fcb41a"/>
            <polygon points="503.68 79.06 506.91 97.45 490.33 88.83 490.31 88.83 473.84 97.58 476.92 79.16 463.5 66.17 481.97 63.42 490.18 46.63 490.31 46.9 498.5 63.35 516.99 65.97 503.68 79.06" fill="#fcb41a"/>
            <circle cx="73.84" cy="73.84" r="73.84" fill="#fcb41a"/>
            <path d="M59,59.92H43.55l-.86,6.14a17.73,17.73,0,0,1,2.58-.12,18.28,18.28,0,0,1,10.5,2.88c3,2,4.85,5.35,4.85,10,0,7.44-6.38,14-17.13,14a25.33,25.33,0,0,1-11.12-2.28l1.66-7a23,23,0,0,0,9,2c3.87,0,8-1.84,8-6.08s-3.25-6.63-11.24-6.63a35.23,35.23,0,0,0-5.4.36L37,52.24H59Z" fill="#313131"/>
            <path d="M67,87.19a5.41,5.41,0,0,1,5.53-5.72c3.25,0,5.46,2.34,5.46,5.72a5.5,5.5,0,1,1-11,0Z" fill="#313131"/>
            <path d="M111.91,72c0,12.34-5,20.82-15.17,20.82S81.87,83.56,81.81,72.26c0-11.54,4.91-20.69,15.23-20.69C107.73,51.57,111.91,61.08,111.91,72Zm-20.7.24c-.06,9.15,2.15,13.51,5.77,13.51s5.59-4.54,5.59-13.63c0-8.84-1.9-13.51-5.65-13.51C93.48,58.63,91.15,63,91.21,72.26Z" fill="#313131"/>
        </g>
    </g>
</svg>